<?xml version="1.0"?><svg fill="#000000" xmlns="http://www.w3.org/2000/svg"  viewBox="0 0 128 128" width="64px" height="64px">    <path d="M 64 16 C 54.5 16 46.100781 20.900391 41.300781 28.400391 C 38.700781 27.800391 35.800781 27.8 32.800781 29 C 27.200781 31.2 23.2 36.4 23 42.5 C 22.8 47.1 24.800391 51.299219 27.900391 54.199219 C 25.700391 57.199219 24.599609 60.9 25.099609 65 C 25.899609 71.7 31.3 77.1 38 78 C 41 78.4 43.799219 77.900781 46.199219 76.800781 C 46.199219 76.800781 46.9 76.499219 47.5 76.199219 C 48.8 75.399219 48.9 73.399609 48 72.099609 C 45.4 68.499609 44 64.3 44 60 C 44 58.9 44.900391 58.099609 45.900391 58.099609 L 53.099609 58.099609 C 56.199609 58.099609 59.500781 57.699219 62.800781 56.699219 C 69.400781 54.699219 74.799609 50.7 78.099609 46 C 78.499609 45.4 78.899219 44.900781 79.199219 44.300781 C 79.999219 42.900781 81.799219 42.200391 83.199219 42.900391 C 84.799219 43.700391 85.3 45.599609 84.5 47.099609 C 84 47.999609 83.400781 48.899219 82.800781 49.699219 C 82.200781 50.499219 82.1 51.599609 82.5 52.599609 C 83.5 54.999609 84.000391 57.7 83.900391 60.5 C 83.700391 69.9 76.700391 78.099219 67.400391 79.699219 C 64.400391 80.199219 61.4 80.100781 58.5 79.300781 C 57 78.900781 55.299219 79.599609 54.699219 81.099609 C 54.099219 82.699609 54.999219 84.5 56.699219 85 C 58.999219 85.7 61.400391 86 63.900391 86 C 71.600391 86 78.500781 82.600781 83.300781 77.300781 C 85.300781 78.000781 87.500391 78.200391 89.900391 77.900391 C 96.900391 77.000391 102.40039 71.099609 102.90039 64.099609 C 103.20039 60.299609 102 56.899609 100 54.099609 C 103.2 51.199609 105.10039 47.000391 104.90039 42.400391 C 104.80039 36.400391 100.69961 31.1 95.099609 29 C 92.099609 27.9 89.299219 27.800391 86.699219 28.400391 C 81.899219 20.900391 73.5 16 64 16 z M 64 91 C 47.6 91 32.400781 99.899609 24.300781 114.09961 C 23.500781 115.49961 24.000391 117.39922 25.400391 118.19922 C 26.800391 118.99922 28.7 118.49961 29.5 117.09961 C 36.6 104.69961 49.8 97 64 97 C 78.2 97 91.4 104.69961 98.5 117.09961 C 99.1 118.09961 100.09961 118.59961 101.09961 118.59961 C 101.59961 118.59961 102.09961 118.49922 102.59961 118.19922 C 103.99961 117.39922 104.49922 115.49961 103.69922 114.09961 C 95.599219 99.899609 80.4 91 64 91 z"/></svg>